<svg width="152" height="168" viewBox="0 0 152 168" fill="none" xmlns="http://www.w3.org/2000/svg">
<g id="Group">
<g id="Group_2">
<path id="Vector" d="M105.311 35.2289C103.38 33.3086 100.82 32.1521 98.1029 31.9731C95.3859 31.7942 92.696 32.6049 90.5304 34.2554C88.3648 35.906 86.87 38.2847 86.3222 40.9519C85.7745 43.6191 86.2108 46.3945 87.5507 48.7649C88.9187 47.8903 92.0915 45.355 91.9273 46.5761C91.7449 47.7982 88.8639 50.2606 88.8639 50.2606C88.8793 50.3815 88.8851 50.5035 88.8822 50.6254C89.8769 51.7649 91.0911 52.6922 92.4522 53.352C93.8133 54.0117 95.2934 54.3904 96.8041 54.4654C98.6958 54.5594 100.581 54.175 102.285 53.3478C103.988 52.5205 105.456 51.277 106.552 49.7323C107.648 48.1876 108.337 46.3915 108.555 44.5101C108.773 42.6286 108.514 40.7226 107.8 38.9681C107.23 37.5672 106.383 36.2955 105.311 35.2289Z" fill="#E4E4E7"/>
<path id="Vector_2" d="M79.6138 91.2017C78.2449 89.9482 76.7254 88.8698 75.0903 87.9914C65.8263 82.937 56.2743 78.4298 46.4823 74.4929C46.3284 73.9191 46.1632 73.3485 45.9869 72.7812L35.6093 69.7716C35.6093 69.7716 23.4077 79.4196 26.3809 88.0644C28.0225 92.8644 34.5149 99.281 56.4193 104.314C54.1795 115.707 51.3124 126.967 47.8311 138.043C48.6807 136.203 53.5373 135.113 59.2829 135.757C65.4653 136.45 70.2807 138.694 70.0618 140.791L70.1338 140.883C71.5017 128.373 71.9694 115.781 71.5335 103.204L90.2957 130.937C89.2397 129.443 92.0602 125.151 96.6893 121.241C101.393 117.265 106.173 115.204 107.377 116.608L107.45 116.645L79.6138 91.2017Z" fill="#E4E4E7"/>
</g>
<g id="Group_3">
<path id="Vector_3" d="M150.214 84.3444C149.801 83.6683 149.197 83.1298 148.478 82.797C147.759 82.4642 146.957 82.3521 146.175 82.4749C145.392 82.5976 144.663 82.9497 144.08 83.4866C143.498 84.0235 143.087 84.7211 142.901 85.4912C142.715 86.2613 142.761 87.0693 143.034 87.8131C143.307 88.5568 143.795 89.2029 144.435 89.6697C145.075 90.1364 145.839 90.4029 146.631 90.4353C147.423 90.4678 148.206 90.2647 148.882 89.8519C149.79 89.2985 150.441 88.4072 150.691 87.3742C150.814 86.8626 150.836 86.3317 150.754 85.8118C150.672 85.292 150.489 84.7933 150.214 84.3444Z" fill="#71717A"/>
<path id="Vector_4" d="M116.199 106.631C116.647 107.364 117.32 107.934 118.116 108.256C118.913 108.578 119.792 108.635 120.624 108.419C121.456 108.203 122.196 107.725 122.736 107.056C123.275 106.387 123.585 105.563 123.62 104.704C123.655 103.845 123.413 102.998 122.929 102.288C122.446 101.577 121.747 101.041 120.935 100.758C120.123 100.476 119.242 100.461 118.422 100.718C117.602 100.974 116.886 101.488 116.38 102.182C116.069 102.607 115.845 103.089 115.721 103.6C115.597 104.112 115.576 104.643 115.659 105.163C115.74 105.683 115.925 106.182 116.199 106.631Z" fill="#71717A"/>
<path id="Vector_5" d="M141.867 19.421L141.867 19.4205C141.623 19.1876 141.467 18.8772 141.427 18.5423C141.386 18.2074 141.463 17.8689 141.644 17.5843C141.825 17.2998 142.099 17.0869 142.42 16.9819C142.74 16.877 143.088 16.8866 143.402 17.009L143.402 17.009L143.404 17.01C143.673 17.1136 143.906 17.295 144.071 17.5309C144.237 17.7669 144.328 18.0468 144.334 18.335L144.334 18.3355C144.341 18.6239 144.261 18.9076 144.106 19.1508C143.951 19.3941 143.727 19.5859 143.463 19.7021C143.199 19.8182 142.907 19.8535 142.623 19.8035C142.339 19.7535 142.076 19.6203 141.867 19.421Z" fill="#D4D4D8" stroke="#71717A" stroke-width="1.5"/>
<g id="Vector_6">
<mask id="path-6-inside-1_23765_6976" fill="white">
<path d="M6.60562 22.0787C6.42442 22.3619 6.32812 22.691 6.32812 23.0272C6.32812 23.3634 6.42442 23.6925 6.60562 23.9757C6.77913 24.1793 6.99876 24.3385 7.24623 24.44C7.49371 24.5415 7.76185 24.5824 8.02834 24.5594L6.60562 22.0787Z"/>
</mask>
<path d="M6.60562 22.0787C6.42442 22.3619 6.32812 22.691 6.32812 23.0272C6.32812 23.3634 6.42442 23.6925 6.60562 23.9757C6.77913 24.1793 6.99876 24.3385 7.24623 24.44C7.49371 24.5415 7.76185 24.5824 8.02834 24.5594L6.60562 22.0787Z" fill="#D4D4D8"/>
<path d="M6.60562 22.0787L7.90681 21.3325L6.67583 19.1861L5.34217 21.2702L6.60562 22.0787ZM6.60562 23.9757L5.34217 24.7842L5.39746 24.8706L5.46399 24.9487L6.60562 23.9757ZM8.02834 24.5594L8.15772 26.0538L10.4984 25.8511L9.32953 23.8131L8.02834 24.5594ZM5.34217 21.2702C5.00651 21.7948 4.82812 22.4045 4.82812 23.0272H7.82812C7.82812 22.9776 7.84234 22.929 7.86908 22.8872L5.34217 21.2702ZM4.82812 23.0272C4.82812 23.65 5.00651 24.2597 5.34217 24.7842L7.86908 23.1672C7.84234 23.1254 7.82812 23.0768 7.82812 23.0272H4.82812ZM5.46399 24.9487C5.7925 25.3341 6.20835 25.6355 6.6769 25.8277L7.81557 23.0522C7.78917 23.0414 7.76575 23.0244 7.74726 23.0027L5.46399 24.9487ZM6.6769 25.8277C7.14545 26.02 7.65315 26.0975 8.15772 26.0538L7.89897 23.065C7.87055 23.0674 7.84196 23.0631 7.81557 23.0522L6.6769 25.8277ZM9.32953 23.8131L7.90681 21.3325L5.30444 22.825L6.72716 25.3056L9.32953 23.8131Z" fill="#71717A" mask="url(#path-6-inside-1_23765_6976)"/>
</g>
<g id="Vector_7">
<mask id="path-8-inside-2_23765_6976" fill="white">
<path d="M15.1591 17.8845C15.0028 17.647 14.7771 17.4635 14.5126 17.3591C14.2482 17.2546 13.958 17.2343 13.6816 17.3008C14.1741 18.0852 14.6484 18.8877 15.1591 19.6711C15.3088 19.3972 15.3873 19.09 15.3873 18.7778C15.3873 18.4656 15.3088 18.1585 15.1591 17.8845Z"/>
</mask>
<path d="M15.1591 17.8845C15.0028 17.647 14.7771 17.4635 14.5126 17.3591C14.2482 17.2546 13.958 17.2343 13.6816 17.3008C14.1741 18.0852 14.6484 18.8877 15.1591 19.6711C15.3088 19.3972 15.3873 19.09 15.3873 18.7778C15.3873 18.4656 15.3088 18.1585 15.1591 17.8845Z" fill="#D4D4D8"/>
<path d="M15.1591 17.8845L16.4753 17.1651L16.4459 17.1112L16.4121 17.06L15.1591 17.8845ZM13.6816 17.3008L13.3305 15.8425L11.3016 16.3311L12.4113 18.0985L13.6816 17.3008ZM15.1591 19.6711L13.9025 20.4903L15.2723 22.5913L16.4753 20.3905L15.1591 19.6711ZM16.4121 17.06C16.0862 16.5646 15.6153 16.1819 15.0638 15.964L13.9615 18.7542C13.9388 18.7452 13.9194 18.7294 13.906 18.7091L16.4121 17.06ZM15.0638 15.964C14.5123 15.7461 13.907 15.7037 13.3305 15.8425L14.0328 18.7592C14.0091 18.7649 13.9842 18.7631 13.9615 18.7542L15.0638 15.964ZM12.4113 18.0985C12.8698 18.8287 13.3879 19.701 13.9025 20.4903L16.4156 18.8519C15.9088 18.0745 15.4784 17.3416 14.952 16.5032L12.4113 18.0985ZM16.4753 20.3905C16.7456 19.896 16.8873 19.3414 16.8873 18.7778H13.8873C13.8873 18.8386 13.872 18.8983 13.8429 18.9516L16.4753 20.3905ZM16.8873 18.7778C16.8873 18.2142 16.7456 17.6596 16.4753 17.1651L13.8429 18.604C13.872 18.6573 13.8873 18.7171 13.8873 18.7778H16.8873Z" fill="#71717A" mask="url(#path-8-inside-2_23765_6976)"/>
</g>
<path id="Vector_8" d="M107.482 116.625C106.68 115.677 104.272 116.279 101.354 117.975L105.348 122.151C107.354 119.69 108.248 117.556 107.482 116.625Z" fill="#71717A"/>
<path id="Vector_9" d="M93.2195 124.723C90.7753 127.514 89.5897 130.012 90.448 131.034C91.3225 132.073 94.1132 131.253 97.3782 129.173L93.2195 124.723Z" fill="#71717A"/>
<path id="Vector_10" d="M52.5654 28.8814C51.9608 28.2813 51.1667 27.9096 50.3186 27.8298C49.4706 27.75 48.6211 27.9669 47.9151 28.4436C46.5689 28.1413 45.1626 28.2558 43.8831 28.7719C43.4743 28.0883 42.8953 27.5224 42.2026 27.1293C41.5099 26.7362 40.7271 26.5293 39.9306 26.5289C39.1341 26.5285 38.3511 26.7346 37.658 27.127C36.9649 27.5195 36.3853 28.0849 35.9758 28.7681C35.5664 29.4512 35.341 30.2289 35.3217 31.0252C35.3024 31.8214 35.4898 32.6091 35.8656 33.3114C36.2415 34.0136 36.7929 34.6064 37.4662 35.032C38.1395 35.4576 38.9115 35.7014 39.7071 35.7396C39.8702 37.2845 40.5588 38.7265 41.6578 39.8244C41.6578 39.8244 45.1234 44.0196 42.9529 46.1345C43.6811 45.5656 44.2733 44.8416 44.6867 44.0151C45.1 43.1887 45.324 42.2805 45.3423 41.3566C45.359 41.1753 45.3275 40.9928 45.2511 40.8276C43.0268 38.2932 45.2876 36.2321 46.2726 38.0004C46.7468 38.8577 47.0569 38.8577 47.2758 38.4017C48.1148 36.1409 51.9452 33.0583 52.8745 37.0894V37.0711C53.0214 37.8391 53.0895 38.6225 53.0751 39.4049C53.0751 38.9499 53.0934 37.5271 53.0934 36.1774C53.243 35.2995 53.2182 34.4008 53.0204 33.5326C53.4991 32.826 53.7157 31.9743 53.6326 31.1248C53.5495 30.2754 53.172 29.4818 52.5654 28.8814Z" fill="#71717A"/>
<path id="Vector_11" d="M70.1305 140.846C70.2957 139.423 68.1241 137.946 64.8045 136.91L64.1113 143.512C67.5587 143.236 69.9673 142.251 70.1305 140.846Z" fill="#71717A"/>
<path id="Vector_12" d="M47.7326 138.347C47.5685 139.825 49.9406 141.393 53.532 142.415L54.3 135.63C50.5781 135.867 47.915 136.87 47.7326 138.347Z" fill="#71717A"/>
<path id="Vector_13" d="M116.09 130.231C111.122 131.895 105.916 132.738 100.678 132.727L103.049 135.28C109.968 137.729 117.409 138.314 124.625 136.976C122.003 134.459 119.144 132.201 116.09 130.231Z" fill="#71717A"/>
<path id="Vector_14" d="M64.8773 157.224C60.5642 154.042 56.6132 150.397 53.0952 146.354L52.6719 150.016C53.7663 153.062 56.0098 159.372 64.454 167.2C65.388 164.537 65.2604 160.781 64.8773 157.224Z" fill="#71717A"/>
<path id="Vector_15" d="M51.6943 62.781C51.584 62.708 51.4745 62.6337 51.3659 62.5581C51.4165 62.3747 51.4654 62.1908 51.5127 62.0065C51.5735 62.2633 51.6341 62.5222 51.6943 62.781Z" fill="#D4D4D8" stroke="#71717A" stroke-width="1.5"/>
<g id="Vector_16">
<mask id="path-18-inside-3_23765_6976" fill="white">
<path d="M46.8027 44.7126C47.1493 45.6246 47.4747 46.5722 47.7877 47.6675C47.7503 46.9945 47.9155 46.3257 48.2619 45.7475C47.7081 45.5091 47.2109 45.1564 46.8027 44.7126Z"/>
</mask>
<path d="M46.8027 44.7126C47.1493 45.6246 47.4747 46.5722 47.7877 47.6675C47.7503 46.9945 47.9155 46.3257 48.2619 45.7475C47.7081 45.5091 47.2109 45.1564 46.8027 44.7126Z" fill="#D4D4D8"/>
<path d="M46.8027 44.7126L47.9068 43.6972L45.4006 45.2455L46.8027 44.7126ZM47.7877 47.6675L46.3454 48.0796L49.2854 47.5843L47.7877 47.6675ZM48.2619 45.7475L49.5486 46.5185L50.4299 45.0478L48.8551 44.3698L48.2619 45.7475ZM45.4006 45.2455C45.7344 46.1241 46.0458 47.031 46.3454 48.0796L49.23 47.2554C48.9037 46.1133 48.5641 45.1252 48.2049 44.1798L45.4006 45.2455ZM49.2854 47.5843C49.2646 47.2107 49.3563 46.8395 49.5486 46.5185L46.9752 44.9765C46.4746 45.812 46.236 46.7783 46.29 47.7508L49.2854 47.5843ZM48.8551 44.3698C48.4952 44.2148 48.1721 43.9857 47.9068 43.6972L45.6987 45.7281C46.2497 46.3272 46.9211 46.8033 47.6687 47.1253L48.8551 44.3698Z" fill="#71717A" mask="url(#path-18-inside-3_23765_6976)"/>
</g>
<path id="Vector_17" d="M57.4612 105.327L56.5629 107.515L57.0312 105.231L57.4612 105.327Z" fill="#D4D4D8" stroke="#71717A" stroke-width="1.5"/>
<path id="Vector_18" d="M33.3022 56.028L32.9064 54.5871L33.6658 55.1901L33.3022 56.028Z" fill="#D4D4D8" stroke="#71717A" stroke-width="1.5"/>
</g>
<g id="Group_4">
<path id="Vector_19" d="M115.652 5.7012C115.779 6.17772 115.762 6.68141 115.603 7.14832C115.444 7.61523 115.15 8.02431 114.758 8.32364C114.366 8.62297 113.893 8.79905 113.401 8.82952C112.909 8.86 112.418 8.7435 111.992 8.4948C111.566 8.24688 111.223 7.87845 111.006 7.43592C110.791 6.99314 110.711 6.49652 110.776 6.0084C110.842 5.52027 111.05 5.0624 111.375 4.69224C111.701 4.32264 112.13 4.05864 112.606 3.93192C113.244 3.76402 113.923 3.85593 114.494 4.18753C115.065 4.51912 115.481 5.0634 115.652 5.7012Z" stroke="#71717A" stroke-width="1.5" stroke-linecap="round" stroke-linejoin="round"/>
<path id="Vector_20" d="M123.476 10.1689C123.64 10.7682 123.574 11.4071 123.291 11.9601C123.008 12.5132 122.528 12.9404 121.946 13.1579C121.364 13.3754 120.722 13.3674 120.146 13.1355C119.569 12.9036 119.101 12.4645 118.831 11.9046C118.67 11.5738 118.583 11.2112 118.578 10.843C118.573 10.4748 118.65 10.1101 118.803 9.77509C118.956 9.44007 119.181 9.14306 119.462 8.90541C119.743 8.66775 120.074 8.49536 120.43 8.40061C121.068 8.23268 121.747 8.32446 122.318 8.65586C122.889 8.98726 123.305 9.5313 123.476 10.1689Z" stroke="#71717A" stroke-width="1.5" stroke-linecap="round" stroke-linejoin="round"/>
<path id="Vector_21" d="M113.1 15.4768L121.197 1.56067" stroke="#71717A" stroke-width="1.5" stroke-linecap="round" stroke-linejoin="round"/>
<path id="Vector_22" d="M150.214 84.3443C149.801 83.6682 149.197 83.1297 148.478 82.7969C147.759 82.4641 146.957 82.352 146.175 82.4748C145.392 82.5975 144.663 82.9496 144.08 83.4865C143.498 84.0234 143.087 84.721 142.901 85.4911C142.715 86.2612 142.761 87.0692 143.034 87.8129C143.307 88.5567 143.795 89.2028 144.435 89.6695C145.075 90.1363 145.839 90.4027 146.631 90.4352C147.423 90.4676 148.206 90.2646 148.882 89.8518C149.79 89.2983 150.441 88.4071 150.691 87.3741C150.814 86.8625 150.836 86.3316 150.754 85.8117C150.672 85.2918 150.489 84.7932 150.214 84.3443Z" stroke="#71717A" stroke-width="1.5" stroke-linecap="round" stroke-linejoin="round"/>
<path id="Vector_23" d="M116.199 106.631C116.647 107.364 117.32 107.934 118.116 108.256C118.913 108.578 119.792 108.635 120.624 108.419C121.456 108.203 122.196 107.725 122.736 107.056C123.275 106.387 123.585 105.563 123.62 104.704C123.655 103.845 123.413 102.998 122.929 102.288C122.446 101.577 121.747 101.041 120.935 100.758C120.123 100.476 119.242 100.461 118.422 100.718C117.602 100.974 116.886 101.488 116.38 102.182C116.069 102.607 115.845 103.089 115.721 103.6C115.597 104.112 115.576 104.643 115.659 105.163C115.74 105.683 115.925 106.182 116.199 106.631Z" stroke="#71717A" stroke-width="1.5" stroke-linecap="round" stroke-linejoin="round"/>
<path id="Vector_24" d="M143.447 88.7758L123.166 102.692" stroke="#71717A" stroke-width="1.5" stroke-linecap="round" stroke-linejoin="round"/>
<path id="Vector_25" d="M146.201 82.4838L134.766 25.6538L142.881 18.377" stroke="#71717A" stroke-width="1.5" stroke-linecap="round" stroke-linejoin="round"/>
<path id="Vector_26" d="M144.032 71.6502L103.834 93.591L82.2949 74.2403L137.466 39.0947L144.032 71.6502Z" stroke="#71717A" stroke-width="1.5" stroke-linecap="round" stroke-linejoin="round"/>
<path id="Vector_27" d="M141.351 19.9629C141.666 20.2648 142.064 20.4664 142.495 20.5421C142.925 20.6179 143.368 20.5645 143.767 20.3886C144.167 20.2127 144.506 19.9222 144.741 19.5539C144.975 19.1857 145.096 18.756 145.086 18.3194C145.077 17.8823 144.938 17.4579 144.687 17.1001C144.436 16.7422 144.084 16.4673 143.676 16.3101C143.2 16.1247 142.674 16.1102 142.189 16.2691C141.703 16.4281 141.288 16.7505 141.013 17.1816C140.739 17.6126 140.622 18.1255 140.684 18.6327C140.746 19.1399 140.981 19.6101 141.351 19.9629Z" stroke="#71717A" stroke-width="1.5" stroke-linecap="round" stroke-linejoin="round"/>
<path id="Vector_28" d="M83.1152 59.392C83.4992 59.2653 90.1232 57.065 93.7511 53.9037" stroke="#71717A" stroke-width="1.5" stroke-linecap="round" stroke-linejoin="round"/>
<path id="Vector_29" d="M91.8153 54.4883C91.7833 53.953 91.7052 53.4215 91.582 52.8995" stroke="#71717A" stroke-width="1.5" stroke-linecap="round" stroke-linejoin="round"/>
<path id="Vector_30" d="M88.8793 50.6215C89.0434 50.8221 89.2201 51.0055 89.4082 51.2052C91.4311 53.2241 94.1453 54.3994 97.0017 54.4934C99.8582 54.5873 102.644 53.593 104.795 51.7114C106.946 49.8298 108.303 47.2015 108.59 44.358C108.877 41.5144 108.073 38.668 106.342 36.3943C104.614 34.1198 102.087 32.5862 99.2716 32.1032C96.4564 31.6203 93.5627 32.2241 91.1756 33.7927C88.788 35.3606 87.0846 37.7763 86.4094 40.5517C85.7342 43.3271 86.1376 46.2553 87.5382 48.7447" stroke="#71717A" stroke-width="1.5" stroke-linecap="round" stroke-linejoin="round"/>
<path id="Vector_31" d="M33.1611 58.409L34.5656 54.9809L31.5762 52.578" stroke="#71717A" stroke-width="1.5" stroke-linecap="round" stroke-linejoin="round"/>
<path id="Vector_32" d="M47.7906 47.7501L46.748 44.6781C47.235 45.065 47.7547 45.4087 48.3013 45.7053" stroke="#71717A" stroke-width="1.5" stroke-linecap="round" stroke-linejoin="round"/>
<path id="Vector_33" d="M49.94 51.0957C46.821 51.041 43.5743 48.761 40.8027 46.2084" stroke="#71717A" stroke-width="1.5" stroke-linecap="round" stroke-linejoin="round"/>
<path id="Vector_34" d="M40.7842 46.2084L40.1641 50.8221L45.8175 50.3479L49.5567 54.4519L49.9397 51.0957" stroke="#71717A" stroke-width="1.5" stroke-linecap="round" stroke-linejoin="round"/>
<path id="Vector_35" d="M13.6827 17.3009C13.9591 17.2368 14.2485 17.2584 14.5123 17.3626C14.7762 17.4669 15.0022 17.6489 15.1602 17.8845C15.9483 18.9761 14.6494 21.2215 12.2974 22.8996C9.94544 24.5777 7.39184 25.0509 6.6248 23.9556C6.44382 23.6723 6.34766 23.3432 6.34766 23.0071C6.34766 22.671 6.44382 22.3419 6.6248 22.0586" stroke="#71717A" stroke-width="1.5" stroke-linecap="round" stroke-linejoin="round"/>
<path id="Vector_36" d="M85.5235 54.7072C86.4902 54.0506 89.0985 52.1901 88.8614 50.2384C88.8614 50.2384 91.7414 47.776 91.9248 46.5549C92.1081 45.3338 88.8614 47.9037 87.5088 48.7629C85.2377 50.2229 82.8736 51.5329 80.4316 52.6845" stroke="#71717A" stroke-width="1.5" stroke-linecap="round" stroke-linejoin="round"/>
<path id="Vector_37" d="M51.418 58.6826L52.8215 64.3188" stroke="#71717A" stroke-width="1.5" stroke-linecap="round" stroke-linejoin="round"/>
<path id="Vector_38" d="M53.0761 39.4048C53.0761 38.9488 53.0943 37.527 53.0943 36.1773C53.2431 35.2989 53.2191 34.4013 53.0214 33.5325C53.4949 32.8249 53.708 31.9749 53.6241 31.1276C53.5402 30.2804 53.1646 29.4886 52.5615 28.8877C51.9584 28.2868 51.1653 27.914 50.3178 27.8331C49.4702 27.7523 48.6209 27.9684 47.9151 28.4445C46.569 28.1413 45.1624 28.2558 43.8831 28.7728C43.4743 28.0892 42.8953 27.5232 42.2026 27.1301C41.5099 26.737 40.7271 26.5302 39.9306 26.5298C39.1341 26.5294 38.3511 26.7355 37.658 27.1279C36.9649 27.5203 36.3853 28.0857 35.9758 28.7689C35.5664 29.4521 35.341 30.2298 35.3217 31.026C35.3024 31.8223 35.4898 32.61 35.8656 33.3122C36.2415 34.0144 36.7929 34.6073 37.4662 35.0329C38.1395 35.4584 38.9115 35.7022 39.7071 35.7405C39.87 37.2854 40.5587 38.7275 41.6578 39.8253C41.6578 39.8253 45.279 44.2086 42.8002 46.2736" stroke="#71717A" stroke-width="1.5" stroke-linecap="round" stroke-linejoin="round"/>
<path id="Vector_39" d="M97.3773 129.173C94.1133 131.253 91.3072 132.07 90.4279 131.034C88.6999 128.994 94.5012 123.162 96.8484 121.18C99.0564 119.317 105.768 114.593 107.481 116.625C108.249 117.536 107.354 119.708 105.347 122.17" stroke="#71717A" stroke-width="1.5" stroke-linecap="round" stroke-linejoin="round"/>
<path id="Vector_40" d="M116.09 130.231C111.122 131.895 105.916 132.738 100.678 132.727" stroke="#71717A" stroke-width="1.5" stroke-linecap="round" stroke-linejoin="round"/>
<path id="Vector_41" d="M101.353 117.993L106.004 122.845C107.897 125.018 110.149 126.85 112.661 128.261C117.048 130.584 121.083 133.519 124.643 136.979C117.427 138.317 109.986 137.732 103.067 135.283L93.2188 124.723" stroke="#71717A" stroke-width="1.5" stroke-linecap="round" stroke-linejoin="round"/>
<path id="Vector_42" d="M64.1112 143.508C67.5585 143.236 69.9758 142.25 70.1304 140.846C70.4366 138.05 63.2405 136.32 60.1166 135.901C56.3582 135.398 48.0638 135.371 47.7326 138.347C47.5685 139.825 49.9406 141.393 53.532 142.415" stroke="#71717A" stroke-width="1.5" stroke-linecap="round" stroke-linejoin="round"/>
<path id="Vector_43" d="M53.0957 146.354C56.6 150.41 60.5525 154.057 64.8778 157.224" stroke="#71717A" stroke-width="1.5" stroke-linecap="round" stroke-linejoin="round"/>
<path id="Vector_44" d="M54.3135 135.683L52.6719 150.002C53.7663 153.047 56.0098 159.358 64.454 167.186C65.8066 163.262 64.8936 156.832 64.2533 152.723C63.8044 149.888 63.7308 147.005 64.0344 144.15C64.117 143.39 63.9874 144.658 64.7976 136.934" stroke="#71717A" stroke-width="1.5" stroke-linecap="round" stroke-linejoin="round"/>
<path id="Vector_45" d="M53.7891 116.552L58.4585 104.735L56.3983 104.276" stroke="#71717A" stroke-width="1.5" stroke-linecap="round" stroke-linejoin="round"/>
<path id="Vector_46" d="M47.8375 137.959C51.3515 126.91 54.2096 115.663 56.3969 104.276C34.4906 99.2493 28.0039 92.8058 26.3757 88.0279C23.3997 79.3879 35.6042 69.7351 35.6042 69.7351" stroke="#71717A" stroke-width="1.5" stroke-linecap="round" stroke-linejoin="round"/>
<path id="Vector_47" d="M44.9062 79C53.1792 83.5208 60.9971 88.8285 68.2515 94.8496C69.2103 95.6208 69.994 96.5872 70.5505 97.6846C71.1069 98.782 71.4235 99.9852 71.479 101.214C72.0346 114.44 71.5898 127.688 70.1485 140.846" stroke="#71717A" stroke-width="1.5" stroke-linecap="round" stroke-linejoin="round"/>
<path id="Vector_48" d="M45.9824 72.7446C46.7835 75.2598 47.3214 77.8513 47.5875 80.4774" stroke="#71717A" stroke-width="1.5" stroke-linecap="round" stroke-linejoin="round"/>
<path id="Vector_49" d="M90.2353 130.727L71.5527 103.111" stroke="#71717A" stroke-width="1.5" stroke-linecap="round" stroke-linejoin="round"/>
<path id="Vector_50" d="M46.457 74.441C56.2582 78.3943 65.8246 82.9063 75.1092 87.955C76.747 88.8286 78.2676 89.9076 79.6327 91.1652L107.281 116.43" stroke="#71717A" stroke-width="1.5" stroke-linecap="round" stroke-linejoin="round"/>
<path id="Vector_51" d="M15.1409 19.671C15.1409 19.671 10.6548 13.6528 11.4209 9.23869C12.2052 4.71613 11.2999 4.63069 9.32331 8.71069C8.01483 11.4121 7.57227 17.7203 7.57227 17.7203" stroke="#71717A" stroke-width="1.5" stroke-linecap="round" stroke-linejoin="round"/>
<path id="Vector_52" d="M8.03187 24.5594C8.03187 24.5594 4.01331 17.6686 1.81299 12.9434C0.166593 9.40775 2.28723 10.8094 2.88915 11.995" stroke="#71717A" stroke-width="1.5" stroke-linecap="round" stroke-linejoin="round"/>
<path id="Vector_53" d="M6.07643 9.22057C5.80264 7.90035 5.65605 6.55693 5.63867 5.20873C5.63867 1.15945 6.62843 1.35913 7.49915 4.78921C7.90536 6.40127 8.39856 7.99016 8.97659 9.54889" stroke="#71717A" stroke-width="1.5" stroke-linecap="round" stroke-linejoin="round"/>
<path id="Vector_54" d="M6.82452 8.52832C5.21615 10.2944 4.26315 12.5593 4.125 14.944" stroke="#71717A" stroke-width="1.5" stroke-linecap="round" stroke-linejoin="round"/>
<path id="Vector_55" d="M5.78502 7.32451C5.42022 6.48547 5.05638 5.50051 4.70886 4.44451C3.4887 0.723551 2.72166 1.54435 3.12294 4.93699C3.41201 7.3019 3.98743 9.62292 4.83654 11.849" stroke="#71717A" stroke-width="1.5" stroke-linecap="round" stroke-linejoin="round"/>
<path id="Vector_56" d="M3.50522 7.39748C2.24762 3.32996 1.31258 4.06052 1.8281 7.78148C2.22285 10.2682 2.99767 12.6794 4.12538 14.9306" stroke="#71717A" stroke-width="1.5" stroke-linecap="round" stroke-linejoin="round"/>
<path id="Vector_57" d="M27.7072 111.264L25.1719 121.094" stroke="#71717A" stroke-width="1.5" stroke-linecap="round" stroke-linejoin="round"/>
<path id="Vector_58" d="M31.3558 117.464L21.5254 114.911" stroke="#71717A" stroke-width="1.5" stroke-linecap="round" stroke-linejoin="round"/>
<path id="Vector_59" d="M6.52539 23.8183C11.2131 33.16 20.5798 43.5732 31.5814 52.578C33.2287 58.2215 34.5746 63.9486 35.6134 69.7351L45.991 72.7447C47.7347 69.5625 49.2449 66.2578 50.5097 62.8567C53.2937 64.746 56.3278 66.2375 59.5241 67.288C61.0985 67.8522 62.8134 67.8906 64.4115 67.3975C70.856 65.4386 77.147 63.0064 83.2332 60.1207C82.9021 57.2002 81.7798 54.4255 79.9875 52.096C74.5329 54.6022 68.7952 56.4396 62.8995 57.568C57.9761 55.8062 53.2981 53.4221 48.9795 50.4736C47.4435 49.4628 47.6009 47.2807 48.3075 45.7015C50.1372 46.5972 52.9481 46.7728 53.0825 39.5306C53.2255 32.2346 48.4659 35.634 47.3523 38.2269C47.0969 38.8231 46.8348 38.9949 46.2799 37.9984C45.2979 36.2282 43.016 38.2864 45.2585 40.8256C45.3497 41.1204 45.3747 41.4324 45.3315 41.7376C44.5788 45.7015 42.5772 47.9776 39.3862 45.2896C30.1193 37.5031 22.807 30.498 15.1654 17.8778" stroke="#71717A" stroke-width="1.5" stroke-linecap="round" stroke-linejoin="round"/>
<path id="Vector_60" d="M50.502 62.8595C51.2297 60.9916 51.5362 58.9862 51.3996 56.9862" stroke="#71717A" stroke-width="1.5" stroke-linecap="round" stroke-linejoin="round"/>
</g>
</g>
</svg>
